# xmcd
#
# Track frame offsets:
#	150
#	18268
#	28673
#	41053
#	54293
#	68568
#	81313
#	95280
#	111693
#	129130
#	146413
#	160805
#	173305
#	187875
#	203018
#
# Disc length: 2906 seconds
#
# Revision: 0
# Processed by: cddbd v1.4PL0 Copyright (c) Steve Scherf et al.
# Submitted via: dBpowerAMP V4.0
#
DISCID=b70b580f
DTITLE=Alberto Vásquez - Exitos
DYEAR=1900
DGENRE=
TTITLE0=Por el amor de una mujer
TTITLE1=Chatita
TTITLE2=Los hombres no deben llorar
TTITLE3=El pecador
TTITLE4=Quien eres tú
TTITLE5=No mas contigo
TTITLE6=Sentimientos
TTITLE7=No me vuelvo a enamorar
TTITLE8=Celos
TTITLE9=Y nunca comprendí
TTITLE10=Yo no te olvido
TTITLE11=Aunque te enamores
TTITLE12=Yo lo Comprendo
TTITLE13=Señora
TTITLE14=El día que me quieras
EXTD=
EXTT0=
EXTT1=
EXTT2=
EXTT3=
EXTT4=
EXTT5=
EXTT6=
EXTT7=
EXTT8=
EXTT9=
EXTT10=
EXTT11=
EXTT12=
EXTT13=
EXTT14=
PLAYORDER=
